# xmcd CD database file
#
# Track frame offsets:
#	150
#	11983
#	23110
#	35953
#	50750
#	63663
#	76113
#	86838
#	100330
#	111748
#	123805
#	139083
#
# Disc length: 2028 seconds
#
# Revision: 2
# Processed by: cddbd v1.5.1PL0 Copyright (c) Steve Scherf et al.
# Submitted via: CDex 1.50
#
DISCID=ad07ea0c
DTITLE=Sonny Boy Williamson II - Down And Out Blues
DYEAR=1900
DGENRE=Blues
TTITLE0=Don't Start Me To Talkin'
TTITLE1=I Don't Know
TTITLE2=All My Love In Vain
TTITLE3=The Key
TTITLE4=Keep It To Yourself
TTITLE5=Dissatisfied
TTITLE6=Fattening Frogs For Snakes
TTITLE7=Wake Up Baby
TTITLE8=Your Funeral And My Trial
TTITLE9="99"
TTITLE10=Cross My Heart
TTITLE11=Let Me Explain
EXTD=CHD-31272\n\nSubmitted 7/16/97\n[Jmccoy@efn.org]
EXTT0=
EXTT1=
EXTT2=
EXTT3=
EXTT4=
EXTT5=
EXTT6=
EXTT7=
EXTT8=
EXTT9=
EXTT10=
EXTT11=
PLAYORDER=
